<?xml version="1.0" encoding="UTF-8" standalone="no" ?>
<!DOCTYPE svg PUBLIC "-//W3C//DTD SVG 1.1//EN" "http://www.w3.org/Graphics/SVG/1.1/DTD/svg11.dtd">
<svg xmlns="http://www.w3.org/2000/svg" xmlns:xlink="http://www.w3.org/1999/xlink" version="1.1" width="1080" height="1080" viewBox="0 0 1080 1080" xml:space="preserve">
<desc>Created with Fabric.js 5.2.4</desc>
<defs>
</defs>
<g transform="matrix(1 0 0 1 540 540)" id="cb585283-b1a5-4219-b614-224ccf8e27ed"  >
<rect style="stroke: none; stroke-width: 1; stroke-dasharray: none; stroke-linecap: butt; stroke-dashoffset: 0; stroke-linejoin: miter; stroke-miterlimit: 4; fill: rgb(255,255,255); fill-rule: nonzero; opacity: 1; visibility: hidden;" vector-effect="non-scaling-stroke"  x="-540" y="-540" rx="0" ry="0" width="1080" height="1080" />
</g>
<g transform="matrix(1 0 0 1 540 540)" id="62b4c07c-b141-409a-8e3b-a16ff248d709"  >
</g>
<g transform="matrix(0.88 0 0 0.88 540 520.86)"  >
<g style="" vector-effect="non-scaling-stroke"   >
		<g transform="matrix(1.05 0 0 1.05 0 0)" id="path3055-3"  >
<path style="stroke: none; stroke-width: 0; stroke-dasharray: none; stroke-linecap: butt; stroke-dashoffset: 0; stroke-linejoin: miter; stroke-miterlimit: 4; fill: rgb(255,255,255); fill-rule: nonzero; opacity: 1;" vector-effect="non-scaling-stroke"  transform=" translate(-371.97, -518.59)" d="M 369.40071 158.69816 C 362.8413303942034 159.0285702871994 356.41453050902686 160.6548115567065 350.49734 163.48148000000003 L 92.547184 286.72625 C 79.02285385105253 293.18473486638595 69.19968645635129 305.39930480171495 65.858134 319.91262 L 2.2200935 596.75153 C -0.7487720770375299 609.6380113294592 1.6669210151001668 623.1675699595827 8.917093500000018 634.25938 C 9.787247531787814 635.6015020000532 10.723089756635876 636.9005982995508 11.721264000000012 638.15201 L 190.26408 860.13116 C 199.6258548291441 871.7666384662574 213.82009111838408 878.541632864257 228.82959 878.53871 L 515.15129 878.47271 C 530.1551730567875 878.483645646736 544.3484081775483 871.7212740772125 553.7168 860.09816 L 732.19363 638.08601 C 741.5604145884442 626.4447021548383 745.0698522873324 611.205561500175 741.72779 596.68553 L 677.99077 319.84662 C 674.6492147792897 305.3333085490868 664.826047763489 293.11874276549815 651.30172 286.66026 L 393.31858 163.48146 C 385.87564749363145 159.92573605779512 377.65142808646084 158.28097951489613 369.40071 158.69814 z" stroke-linecap="round" />
</g>
		<g transform="matrix(1.05 0 0 1.05 0 0.04)" id="path3055"  >
<path style="stroke: none; stroke-width: 0; stroke-dasharray: none; stroke-linecap: butt; stroke-dashoffset: 0; stroke-linejoin: miter; stroke-miterlimit: 4; fill: rgb(50,108,229); fill-rule: nonzero; opacity: 1;" vector-effect="non-scaling-stroke"  transform=" translate(-371.98, -518.62)" d="M 369.53875 177.69828 C 363.3253661179416 178.01127924072654 357.23756880082954 179.55182131922786 351.6325 182.22953 L 107.28873999999999 298.97953 C 94.47779591162713 305.09766297479933 85.1727834861381 316.6685436917857 82.00748999999998 330.41703000000007 L 21.72623999999999 592.6670300000001 C 18.913978950772286 604.8744163429159 21.20225024756216 617.6909900594188 28.06998999999999 628.1982800000001 C 28.89424303759061 629.469676030288 29.780719416415934 630.700313826775 30.726239999999983 631.8857800000001 L 199.85125 842.1670300000001 C 208.71920936272485 853.1893377331991 222.16472555254296 859.6073001232063 236.3825 859.6045300000001 L 507.60125 859.5420300000001 C 521.8137067119225 859.5523879853266 535.2582748754983 853.1463790314242 544.1325 842.13578 L 713.195 631.82328 C 722.067704027228 620.79544787515 725.3920251423218 606.3593821331337 722.22625 592.60453 L 661.85125 330.35452999999995 C 658.6859565138619 316.60604369178566 649.3809440883729 305.03516297479933 636.57 298.91703 L 392.195 182.22953 C 385.1446676151169 178.8611848736157 377.3542593068212 177.3031032119566 369.53874999999994 177.69828 z" stroke-linecap="round" />
</g>
		<g transform="matrix(1.05 0 0 1.05 0 0.04)" id="path3059"  >
<path style="stroke: none; stroke-width: 0; stroke-dasharray: none; stroke-linecap: butt; stroke-dashoffset: 0; stroke-linejoin: miter; stroke-miterlimit: 4; fill: rgb(255,255,255); fill-rule: nonzero; opacity: 1;" vector-effect="non-scaling-stroke"  transform=" translate(-371.98, -518.62)" d="M 371.9599 266.94541 C 363.88294 266.94622999999996 357.33394 274.22132 357.3349 283.1954 C 357.33491 283.33313 357.36310000000003 283.46474 357.3661 283.60165 C 357.3542 284.82101 357.2953 286.29001 357.3349 287.35165 C 357.52752 292.52765 358.6558 296.48914 359.3349 301.2579 C 360.56518 311.46456 361.59607 319.92526 360.9599 327.78915 C 360.34121 330.75455 358.15702 333.46656 356.2099 335.35165 L 355.86615 341.53915 C 347.08933 342.26632 338.2538 343.59789 329.42865 345.60165 C 291.45404 354.22383 258.75857 373.78472 233.86615 400.1954 C 232.25093 399.09347 229.42512 397.06626 228.58485000000002 396.4454 C 225.97368000000003 396.79802 223.33464 397.60369000000003 219.89735000000002 395.60165 C 213.35244000000003 391.19602000000003 207.39148000000003 385.11472000000003 200.17860000000002 377.78915 C 196.87362000000002 374.28496 194.48028000000002 370.94814 190.55360000000002 367.5704 C 189.66188000000002 366.80333 188.30102000000002 365.76585 187.30360000000002 364.97665 C 184.23372 362.52908 180.61290000000002 361.25263 177.11610000000002 361.1329 C 172.62021000000001 360.97896000000003 168.29216000000002 362.73675000000003 165.45985000000002 366.28915 C 160.42464 372.60453 162.03673 382.2572 169.05360000000002 387.85165 C 169.12480000000002 387.90835 169.20062000000001 387.95243 169.27235000000002 388.0079 C 170.23657000000003 388.78952 171.41731000000001 389.79103000000003 172.30360000000002 390.4454 C 176.47047 393.52195 180.2768 395.09685 184.42860000000002 397.53915 C 193.17560000000003 402.94096 200.42697 407.42001 206.17860000000002 412.8204 C 208.42462 415.21457 208.81718 419.43332 209.11610000000002 421.2579 L 213.80360000000002 425.4454 C 188.71018 463.20908000000003 177.09674 509.85486000000003 183.9599 557.3829000000001 L 177.8349 559.1641500000001 C 176.2206 561.2487600000001 173.93949 564.52889 171.55360000000002 565.5079000000001 C 164.02847000000003 567.8781100000001 155.55936000000003 568.7484900000001 145.33485000000002 569.8204000000001 C 140.53454000000002 570.21955 136.39267 569.98135 131.30360000000002 570.9454000000001 C 130.18352000000002 571.15758 128.62288 571.5641700000001 127.39735000000002 571.8516500000001 C 127.35475000000002 571.8606500000001 127.31495000000001 571.8732500000001 127.27235000000002 571.8828500000001 C 127.20555000000002 571.89835 127.11779000000001 571.9307500000001 127.05360000000002 571.9453500000001 C 118.43346000000003 574.0281400000001 112.89586000000001 581.95135 114.67860000000002 589.7578500000001 C 116.46176000000001 597.56618 124.88174000000002 602.3146200000001 133.55360000000002 600.4453500000001 C 133.61620000000002 600.43105 133.70710000000003 600.4286500000001 133.77235000000002 600.4141500000001 C 133.87025000000003 600.3917500000001 133.95644000000001 600.3442500000001 134.05360000000002 600.32045 C 135.26245000000003 600.0550900000001 136.77737000000002 599.75985 137.83485000000002 599.4767 C 142.83819000000003 598.13707 146.46179 596.1687400000001 150.95985000000002 594.44545 C 160.63679000000002 590.97468 168.65158000000002 588.07523 176.45985000000002 586.94545 C 179.72103 586.6900300000001 183.15696000000003 588.95761 184.86610000000002 589.9142 L 191.24110000000002 588.82045 C 205.91128 634.30327 236.65526000000003 671.06547 275.58485 694.13295 L 272.9286 700.50795 C 273.88602000000003 702.98337 274.94201000000004 706.3326500000001 274.22882000000004 708.77727 C 271.39014000000003 716.1384700000001 266.52785000000006 723.9082400000001 260.9911 732.57045 C 258.31025 736.5723700000001 255.56657 739.6780600000001 253.14735000000002 744.25795 C 252.56845 745.3538400000001 251.83117000000001 747.03727 251.27235000000002 748.19545 C 247.51351000000003 756.2378100000001 250.27071 765.5006500000001 257.4911 768.9767 C 264.75685000000004 772.4745800000001 273.77557 768.7853600000001 277.6786 760.7267 C 277.6846 760.7153000000001 277.7043 760.7069 277.70980000000003 760.6955 C 277.71380000000005 760.6865 277.7058 760.673 277.70980000000003 760.6643 C 278.26573 759.52175 279.05333 758.01993 279.52230000000003 756.94555 C 281.59443000000005 752.19853 282.28391000000005 748.13049 283.74105000000003 743.5393 C 287.61067 733.81916 289.73672000000005 723.62027 295.06363000000005 717.2651900000001 C 296.52231000000006 715.5249600000001 298.90044000000006 714.8556900000001 301.36605000000003 714.19555 L 304.67855000000003 708.19555 C 338.61679000000004 721.22235 376.60521000000006 724.71801 414.55355000000003 716.1018 C 423.21052000000003 714.1362300000001 431.56799 711.59235 439.64730000000003 708.5393 C 440.57828 710.19063 442.30843000000004 713.365 442.77230000000003 714.1643 C 445.27789 714.9794800000001 448.01274 715.40044 450.24105000000003 718.69555 C 454.22644 725.50453 456.95195 733.55971 460.27230000000003 743.2893 C 461.72968000000003 747.88041 462.44992 751.94863 464.52230000000003 756.69555 C 464.99464 757.7775 465.7783 759.30041 466.33480000000003 760.44555 C 470.22962 768.53039 479.27692 772.23222 486.55355000000003 768.7268 C 493.77305 765.2489 496.53329 755.9869 492.77230000000003 747.94555 C 492.21341 746.78741 491.44500000000005 745.10391 490.86605000000003 744.00805 C 488.44659 739.4282900000001 485.70335000000006 736.35357 483.02230000000003 732.3518 C 477.48509 723.68988 472.89262 716.4941 470.05355000000003 709.13305 C 468.86644 705.33648 470.25383000000005 702.97531 471.17855000000003 700.50805 C 470.62477 699.87328 469.43974000000003 696.28796 468.74105000000003 694.6018 C 509.19845000000004 670.71364 539.03961 632.58051 553.0535500000001 588.5393 C 554.94595 588.83672 558.2350900000001 589.41866 559.3035500000001 589.63305 C 561.50309 588.18235 563.5254900000001 586.28953 567.4910500000001 586.6018 C 575.2993700000001 587.73117 583.3139300000001 590.63153 592.9910500000001 594.1018 C 597.4892000000001 595.8248600000001 601.11265 597.82493 606.1160500000001 599.1643 C 607.1735400000001 599.44739 608.68843 599.7115 609.8973000000001 599.9768 C 609.9945000000001 600.0006000000001 610.0806000000001 600.0482000000001 610.1785500000001 600.0705 C 610.2438500000001 600.0851 610.3347000000001 600.0874 610.3973000000001 600.1017 C 619.0696600000001 601.96865 627.4911400000001 597.2229900000001 629.2723000000001 589.4142 C 631.0530400000001 581.60724 625.5180000000001 573.6821900000001 616.8973000000001 571.6017 C 615.6433700000001 571.3165700000001 613.8650500000001 570.8323200000001 612.6473000000001 570.6017 C 607.5581800000001 569.63792 603.4163800000001 569.8756000000001 598.6160500000001 569.4767 C 588.3914900000001 568.4053200000001 579.9225500000001 567.5340100000001 572.3973000000001 565.1642 C 569.3290400000001 563.97392 567.1462700000001 560.3229600000001 566.0847500000001 558.82045 L 560.1785000000001 557.1017 C 563.2407600000001 534.9472800000001 562.4150500000001 511.89036000000004 557.1160000000001 488.82045000000005 C 551.7676100000001 465.53574000000003 542.31563 444.23961 529.7097500000001 425.47670000000005 C 531.2248000000001 424.09941000000003 534.08594 421.56579000000005 534.8972500000001 420.82045000000005 C 535.1344100000001 418.19628000000006 534.9306500000001 415.44492 537.6472500000001 412.53920000000005 C 543.3985900000001 407.13851000000005 550.6505400000001 402.66022000000004 559.3972500000001 397.25795000000005 C 563.5489200000001 394.81543000000005 567.3867900000001 393.24097000000006 571.5535000000001 390.16420000000005 C 572.49575 389.46844000000004 573.7824 388.36661000000004 574.7722500000001 387.57045000000005 C 581.7876300000001 381.97412 583.4028300000001 372.32203000000004 578.3660000000001 366.00795000000005 C 573.3291700000001 359.69387000000006 563.5688800000001 359.09912 556.5535000000001 364.69545000000005 C 555.5549400000001 365.4863 554.1999700000001 366.51797000000005 553.3035000000001 367.28920000000005 C 549.3770000000001 370.66716 546.9520500000001 374.00359000000003 543.6472500000001 377.50795000000005 C 536.4347600000001 384.8339 530.4731800000001 390.94572000000005 523.9285000000001 395.35170000000005 C 521.0924900000001 397.00276 516.9385400000001 396.4314800000001 515.0534500000001 396.32045000000005 L 509.4909500000001 400.28920000000005 C 477.7721500000001 367.02863 434.5862900000001 345.76374000000004 388.0849000000001 341.63290000000006 C 387.9548400000001 339.6841800000001 387.7844500000001 336.1617300000001 387.7411500000001 335.10165000000006 C 385.83744000000013 333.2800000000001 383.5377300000001 331.72479000000004 382.9599000000001 327.78915000000006 C 382.3237300000001 319.92526000000004 383.3858700000001 311.46456000000006 384.6161500000001 301.25790000000006 C 385.2952500000001 296.4891400000001 386.42353000000014 292.52765000000005 386.6161500000001 287.35165000000006 C 386.6599500000001 286.1750200000001 386.5896500000001 284.4676400000001 386.5849500000001 283.19540000000006 C 386.5839900000001 274.22132000000005 380.0369100000001 266.94459000000006 371.9599500000001 266.94541000000004 z M 353.6474 380.38289999999995 L 349.30365 457.10164999999995 L 348.99115 457.25789999999995 C 348.69981 464.12125 343.05119 469.60164999999995 336.11615 469.60164999999995 C 333.27534 469.60164999999995 330.65321 468.68935999999997 328.5224 467.13289999999995 L 328.3974 467.19539999999995 L 265.49115 422.60164999999995 C 284.8248 403.59049999999996 309.55406 389.54125999999997 338.05365 383.07039999999995 C 343.25964 381.88836999999995 348.46331 381.01129999999995 353.6474 380.38289999999995 z M 390.30365 380.38289999999995 C 423.57712000000004 384.4752199999999 454.34866 399.54171999999994 477.92865 422.63289999999995 L 415.42865 466.94539999999995 L 415.2099 466.85169999999994 C 409.66245 470.90338999999994 401.84647 469.8980899999999 397.5224 464.47669999999994 C 395.75108 462.25573999999995 394.82168 459.64430999999996 394.7099 457.00794999999994 L 394.6474 456.9767499999999 z M 242.67865 451.25789999999995 L 300.11615 502.63289999999995 L 300.05365 502.94539999999995 C 305.23802 507.45237 306.00253 515.27334 301.67865 520.6954 C 299.90745 522.9164499999999 297.53657 524.4061399999999 294.99115 525.10165 L 294.92865 525.35165 L 221.30365 546.60165 C 217.55637000000002 512.3364799999999 225.6322 479.02800999999994 242.67865 451.25789999999995 z M 500.8349 451.28909999999996 C 509.369 465.12165999999996 515.83145 480.57124 519.6786500000001 497.32034999999996 C 523.4797100000001 513.8686299999999 524.4336400000001 530.3873199999999 522.8661500000001 546.3516 L 448.86615000000006 525.0391 L 448.80365000000006 524.7266 C 442.17715000000004 522.9155599999999 438.10472000000004 516.17498 439.64740000000006 509.41409999999996 C 440.27943000000005 506.64448 441.74962000000005 504.30145999999996 443.74115000000006 502.57034999999996 L 443.70995000000005 502.41409999999996 L 500.83495000000005 451.28909999999996 z M 360.17865 506.60159999999996 L 383.7099 506.60159999999996 L 398.3349 524.88285 L 393.0849 547.69535 L 371.9599 557.8516 L 350.7724 547.6641 L 345.5224 524.8516 z M 435.61615 569.1641 C 436.61612 569.1135999999999 437.61173 569.2036999999999 438.5849 569.38285 L 438.7099 569.2266 L 514.8661500000001 582.1016 C 503.72065000000003 613.4146999999999 482.3933400000001 640.54178 453.89740000000006 658.69535 L 424.33490000000006 587.2891 L 424.4286000000001 587.1641 C 421.71299000000005 580.85411 424.4306000000001 573.45454 430.6786000000001 570.44535 C 432.27825000000007 569.67494 433.9494900000001 569.24834 435.6161000000001 569.1641 z M 307.7099 569.4766 C 313.52164 569.5581 318.73452000000003 573.5918499999999 320.0849 579.50785 C 320.71709 582.27743 320.4094 585.0215999999999 319.36615 587.44535 L 319.5849 587.7266 L 290.3349 658.4141 C 262.98774000000003 640.8655 241.20563 614.59007 229.55365 582.35165 L 305.05365 569.53915 L 305.17865 569.6954 C 306.02316 569.53999 306.87965 569.4649999999999 307.7099 569.47665 z M 371.49115 600.4454 C 373.5156 600.371 375.5698 600.7863799999999 377.5224 601.72665 C 380.08191 602.95918 382.05913 604.8998399999999 383.30365 607.22665 L 383.5849 607.22665 L 420.80365 674.47665 C 415.97336 676.09588 411.00756 677.4797299999999 405.92865 678.6329 C 377.46412 685.0957999999999 349.09003 683.13757 323.3974 674.3829 L 360.5224 607.2579 L 360.5849 607.2579 C 362.81257 603.09349 367.03737 600.60903 371.49115 600.4454 z" stroke-linecap="round" />
</g>
</g>
</g>
</svg>