<?xml version="1.0" standalone="no"?>
<!DOCTYPE svg PUBLIC "-//W3C//DTD SVG 20010904//EN"
 "http://www.w3.org/TR/2001/REC-SVG-20010904/DTD/svg10.dtd">
<svg version="1.0" xmlns="http://www.w3.org/2000/svg"
 width="512.000000pt" height="512.000000pt" viewBox="0 0 512.000000 512.000000"
 preserveAspectRatio="xMidYMid meet">

<g transform="translate(0.000000,512.000000) scale(0.100000,-0.100000)"
fill="#000000" stroke="none">
<path d="M0 2560 l0 -2420 570 0 570 0 1 493 c1 270 5 1214 8 2096 l6 1605
1143 -1138 1142 -1138 0 758 0 759 -703 703 -702 702 -1018 0 -1017 0 0 -2420z"/>
<path d="M3979 4278 c-1 -387 -5 -1330 -8 -2096 l-6 -1393 -1142 1136 -1143
1137 0 -759 0 -758 703 -703 702 -702 1018 0 1017 0 0 2420 0 2420 -570 0
-570 0 -1 -702z"/>
</g>
</svg>
