<?xml version="1.0" encoding="UTF-8" standalone="no" ?>
<!DOCTYPE svg PUBLIC "-//W3C//DTD SVG 1.1//EN" "http://www.w3.org/Graphics/SVG/1.1/DTD/svg11.dtd">
<svg xmlns="http://www.w3.org/2000/svg" xmlns:xlink="http://www.w3.org/1999/xlink" version="1.1" width="1080" height="1080" viewBox="0 0 1080 1080" xml:space="preserve">
<desc>Created with Fabric.js 5.2.4</desc>
<defs>
</defs>
<rect x="0" y="0" width="100%" height="100%" fill="transparent"></rect>
<g transform="matrix(1 0 0 1 540 540)" id="462d82bc-1318-4c90-afff-324615723932"  >
<rect style="stroke: none; stroke-width: 1; stroke-dasharray: none; stroke-linecap: butt; stroke-dashoffset: 0; stroke-linejoin: miter; stroke-miterlimit: 4; fill: rgb(0,0,0); fill-rule: nonzero; opacity: 1; visibility: hidden;" vector-effect="non-scaling-stroke"  x="-540" y="-540" rx="0" ry="0" width="1080" height="1080" />
</g>
<g transform="matrix(1 0 0 1 540 540)" id="d47bd511-7850-4bc6-b606-ef76f9827826"  >
</g>
<g transform="matrix(1 0 0 1 540 540)"  >
<g style="" vector-effect="non-scaling-stroke"   >
		<g transform="matrix(0.13 0 0 -0.13 -112 0)"  >
<path style="stroke: none; stroke-width: 1; stroke-dasharray: none; stroke-linecap: butt; stroke-dashoffset: 0; stroke-linejoin: miter; stroke-miterlimit: 4; fill: rgb(255,255,255); fill-rule: nonzero; opacity: 1;" vector-effect="non-scaling-stroke"  transform=" translate(-1720, -2560)" d="M 0 2560 L 0 140 L 570 140 L 1140 140 L 1141 633 C 1142 903 1146 1847 1149 2729 L 1155 4334 L 2298 3196 L 3440 2058 L 3440 2816 L 3440 3575 L 2737 4278 L 2035 4980 L 1017 4980 L 0 4980 L 0 2560 z" stroke-linecap="round" />
</g>
		<g transform="matrix(0.13 0 0 -0.13 112 0)"  >
<path style="stroke: none; stroke-width: 1; stroke-dasharray: none; stroke-linecap: butt; stroke-dashoffset: 0; stroke-linejoin: miter; stroke-miterlimit: 4; fill: rgb(255,255,255); fill-rule: nonzero; opacity: 1;" vector-effect="non-scaling-stroke"  transform=" translate(-3400, -2560)" d="M 3979 4278 C 3978 3891 3974 2948 3971 2182 L 3965 789 L 2823 1925 L 1680 3062 L 1680 2303 L 1680 1545 L 2383 842 L 3085 140 L 4103 140 L 5120 140 L 5120 2560 L 5120 4980 L 4550 4980 L 3980 4980 L 3979 4278 z" stroke-linecap="round" />
</g>
</g>
</g>
</svg>