<?xml version="1.0" encoding="UTF-8" standalone="no" ?>
<!DOCTYPE svg PUBLIC "-//W3C//DTD SVG 1.1//EN" "http://www.w3.org/Graphics/SVG/1.1/DTD/svg11.dtd">
<svg xmlns="http://www.w3.org/2000/svg" xmlns:xlink="http://www.w3.org/1999/xlink" version="1.1" width="1080" height="1080" viewBox="0 0 1080 1080" xml:space="preserve">
<desc>Created with Fabric.js 5.2.4</desc>
<defs>
</defs>
<rect x="0" y="0" width="100%" height="100%" fill="transparent"></rect>
<g transform="matrix(1 0 0 1 540 540)" id="b7f7936c-67eb-4a98-afc6-fb42e27548ff"  >
<rect style="stroke: none; stroke-width: 1; stroke-dasharray: none; stroke-linecap: butt; stroke-dashoffset: 0; stroke-linejoin: miter; stroke-miterlimit: 4; fill: rgb(255,255,255); fill-rule: nonzero; opacity: 1; visibility: hidden;" vector-effect="non-scaling-stroke"  x="-540" y="-540" rx="0" ry="0" width="1080" height="1080" />
</g>
<g transform="matrix(1 0 0 1 540 540)" id="1e1639b4-650e-4771-b1c0-a3ed87ea7819"  >
</g>
<g transform="matrix(NaN NaN NaN NaN 0 0)"  >
<g style=""   >
</g>
</g>
<g transform="matrix(2.39 0 0 2.39 540 540)" id="path818"  >
<path style="stroke: rgb(0,0,0); stroke-width: 0; stroke-dasharray: none; stroke-linecap: butt; stroke-dashoffset: 0; stroke-linejoin: miter; stroke-miterlimit: 4; fill: rgb(255,255,255); fill-rule: nonzero; opacity: 1;" vector-effect="non-scaling-stroke"  transform=" translate(-131.12, -170.27)" d="M 153.33845 45.652481 C 151.52911 45.652481 149.84901 46.04021 148.29813 46.557154000000004 C 151.59371 48.754214000000005 153.40305999999998 51.66211500000001 154.30775999999997 54.957705000000004 C 154.37255999999996 55.41003500000001 154.50161999999997 55.733149000000004 154.56631999999996 56.185464 C 154.63111999999995 56.573193 154.69547999999998 56.960908 154.69547999999998 57.348635 C 154.95407999999998 63.035144 153.20919999999998 63.745958 151.98144999999997 67.106178 C 150.10746999999998 71.435707 150.62440999999995 76.088311 152.88610999999997 79.836257 C 153.07997999999998 80.28857500000001 153.33844999999997 80.805532 153.66156999999998 81.257875 C 151.20598999999999 64.909116 164.84076 62.453571 167.36088999999998 57.348635 C 167.55474999999998 52.889874 163.87144999999998 49.917372 160.96357999999998 47.849543000000004 C 158.18493999999998 46.169439000000004 155.66473999999997 45.652481 153.33844999999997 45.652481 z M 173.88747999999998 49.335799 C 173.6289 50.822046 173.82278 50.434329 173.75834999999998 51.209772 C 173.69365 51.726717 173.69365 52.372929 173.62920999999997 52.889874 C 173.50006999999997 53.406833 173.37060999999997 53.923778 173.17684999999997 54.44076 C 173.04771999999997 54.957705 172.85375999999997 55.474663 172.65990999999997 55.991606999999995 C 172.40130999999997 56.50859 172.20756999999998 56.960907999999996 171.94908999999996 57.477864999999994 C 171.75523999999996 57.73644999999999 171.62599999999995 57.994809999999994 171.43213999999995 58.253308 C 171.30299999999994 58.447165 171.17355999999995 58.641023 171.04442999999995 58.83488 C 170.72133999999994 59.287234999999995 170.39821999999995 59.739553 170.07513999999995 60.127266999999996 C 169.68739999999994 60.514996 169.36430999999996 60.967313 168.91194999999996 61.290437999999995 C 168.91194999999996 61.355138 168.91194999999996 61.355138 168.91194999999996 61.355138 C 168.52423999999996 61.67823799999999 168.13651999999996 62.06595299999999 167.68419999999998 62.389041 C 166.32717999999997 63.422943 164.77632999999997 64.198385 163.35467999999997 65.167685 C 162.90236999999996 65.490773 162.44999999999996 65.749272 162.06229999999996 66.13698500000001 C 161.60996999999998 66.46007300000001 161.22223999999997 66.783161 160.83453999999998 67.170888 C 160.38217999999998 67.558603 160.05908999999997 67.94633 159.67135999999996 68.398672 C 159.34826999999996 68.7864 158.96055999999996 69.23872 158.70208999999997 69.691074 C 158.37896999999998 70.143391 158.05588999999998 70.595735 157.79738999999998 71.048064 C 157.53882 71.56500799999999 157.34506 72.017363 157.08657999999997 72.534309 C 156.89272999999997 73.05125299999999 156.69884999999996 73.50361 156.56962999999996 74.02055299999999 C 156.37576999999996 74.602139 156.24652999999995 75.119097 156.11728999999997 75.636067 C 156.05258999999998 75.89465 156.05258999999998 76.217627 155.98814999999996 76.476112 C 155.92334999999997 76.734696 155.92334999999997 76.99305700000001 155.85901999999996 77.251555 C 155.85901999999996 77.76849899999999 155.79431999999997 78.35008499999999 155.79431999999997 78.86703 C 155.79431999999997 79.254757 155.79431999999997 79.642471 155.85901999999996 80.030199 C 155.85901999999996 80.547145 155.92371999999995 81.06409099999999 156.05286999999996 81.645675 C 156.11756999999994 82.16261899999999 156.24670999999995 82.679577 156.37598999999994 83.19655999999999 C 156.56984999999995 83.71350399999999 156.69908999999996 84.23046199999999 156.89292999999995 84.747407 C 157.02208999999996 85.070533 157.21601999999996 85.39362 157.34528999999995 85.65208 L 142.48276999999996 79.90093999999999 C 139.96258999999995 79.190125 137.50706999999997 78.54395 134.98688999999996 77.962364 C 133.62988999999996 77.63927699999999 132.27288999999996 77.316166 130.91586999999996 76.99306499999999 C 127.03867999999996 76.21763499999999 123.09691999999995 75.636074 119.15510999999995 75.24835999999999 C 119.02597999999995 75.24835999999999 118.96125999999995 75.18364999999999 118.83201999999996 75.18364999999999 C 114.95481999999996 74.79593599999998 111.14228999999996 74.60207799999999 107.26511999999995 74.60207799999999 C 104.42183999999995 74.60207799999999 101.57855999999995 74.73120899999999 98.79991899999996 74.92516599999999 C 94.85812099999995 75.18374999999999 90.91631699999996 75.70060799999999 86.97454599999996 76.34678299999999 C 86.00524399999996 76.47592699999998 85.03594399999996 76.66990799999999 84.06664099999996 76.86376699999998 C 82.06344199999997 77.25145599999998 80.12486999999996 77.70381099999999 78.25089899999996 78.15615299999997 C 77.28159899999996 78.41473699999997 76.31229699999996 78.67311099999998 75.34299599999996 78.93157199999997 C 74.37372599999996 79.31928499999998 73.46905599999995 79.77164199999997 72.56435399999995 80.15935599999997 C 71.85354299999995 80.48244399999997 71.14273499999994 80.80554299999997 70.43192299999995 81.12865599999998 C 70.30278399999996 81.19336599999998 70.17334299999996 81.19336599999998 70.10883299999996 81.25779999999997 C 69.46262299999997 81.58088699999998 68.88104299999996 81.83934699999998 68.29949199999996 82.16247099999997 C 68.10563099999996 82.22718099999997 67.97636999999996 82.29160299999997 67.84714099999997 82.35632999999997 C 67.13633099999997 82.67941899999997 66.42552299999997 83.06713299999997 65.84393999999996 83.39023199999997 C 65.39158999999997 83.58408999999997 64.93926999999996 83.84257499999997 64.55155099999996 84.03644499999997 C 64.35768899999997 84.16557599999997 64.09919799999996 84.29501699999997 63.96996899999996 84.35953299999997 C 63.388389999999966 84.68262099999997 62.806808999999966 85.00570699999997 62.28985799999997 85.32883299999997 C 61.70827699999997 85.65191999999998 61.19132599999997 85.97500799999997 60.738975999999965 86.29809599999997 C 60.28665799999997 86.62122099999998 59.83430899999996 86.87968099999998 59.44658599999997 87.20276799999998 C 59.38184599999997 87.26747799999998 59.317446999999966 87.26747799999998 59.25272499999997 87.33191299999997 C 58.86500599999997 87.59049599999997 58.41268599999997 87.91348399999997 58.02496699999997 88.23660899999997 C 58.02496699999997 88.23660899999997 57.96023699999997 88.30130899999997 57.89582699999997 88.36575099999997 C 57.57273699999997 88.62433499999997 57.24961499999997 88.88269799999998 56.92652599999997 89.14115799999998 C 56.79738799999997 89.20586799999998 56.66794499999997 89.33501499999997 56.538805999999965 89.39974099999998 C 56.215715999999965 89.65832699999997 55.892625999999964 89.98132699999998 55.569534999999966 90.23981099999997 C 55.50480499999997 90.36895399999997 55.37567599999996 90.43366899999998 55.31095399999997 90.49839599999997 C 54.923233999999965 90.88611099999997 54.535512999999966 91.20919799999997 54.147792999999965 91.59692599999997 C 54.08306299999997 91.59692599999997 54.08306299999997 91.66163599999997 54.01865399999996 91.72605699999997 C 53.63093399999996 92.04915699999997 53.243214999999964 92.43687299999996 52.85549499999996 92.82459999999998 C 52.790764999999965 92.88930999999998 52.790764999999965 92.95372999999998 52.72635499999996 92.95372999999998 C 52.40326499999996 93.27681899999997 52.08017499999996 93.59994299999998 51.75705399999996 93.98763199999998 C 51.62791699999996 94.11677499999998 51.43396399999996 94.24621799999997 51.30473499999996 94.37534699999998 C 50.98164499999996 94.76307499999997 50.59392399999996 95.15078999999997 50.20620499999996 95.53851799999998 C 50.141474999999964 95.66764999999998 50.01234499999996 95.73237599999999 49.947622999999965 95.86160499999998 C 49.43067099999996 96.37858799999998 48.978320999999966 96.89553299999999 48.461370999999964 97.41248999999998 C 48.39664099999997 97.47719999999998 48.33223299999997 97.54161799999997 48.26751199999996 97.60634799999998 C 47.23358099999996 98.70487699999998 46.13504899999996 99.80340699999998 44.97191799999996 100.77269999999999 C 43.80875899999996 101.80659999999999 42.580995999999956 102.7759 41.35320699999996 103.61594999999998 C 40.06081499999996 104.52064999999999 38.83305499999996 105.29605999999998 37.47603399999996 106.07149999999999 C 36.18364199999996 106.78228999999999 34.826621999999965 107.42850999999999 33.40500199999996 108.01009999999998 C 32.04797999999996 108.59166999999998 30.62636099999996 109.10863999999998 29.20473799999996 109.56094999999998 C 26.49069699999996 110.14251999999998 23.71205399999996 111.24105999999998 21.32113299999996 111.43491999999998 C 20.80418299999996 111.43491999999998 20.22260199999996 111.56406999999997 19.70565099999996 111.62876999999997 C 19.12407299999996 111.75790999999998 18.60712199999996 111.88735999999997 18.09017199999996 112.01650999999997 C 17.57322099999996 112.21034999999996 17.05624099999996 112.40421999999997 16.53928899999996 112.59806999999996 C 16.022337999999962 112.79192999999997 15.50538799999996 113.05041999999996 14.988436999999962 113.30889999999997 C 14.536086999999963 113.63197999999997 14.019137999999963 113.89046999999997 13.566785999999961 114.21355999999997 C 13.11446399999996 114.53664999999997 12.662113999999962 114.92435999999998 12.27439299999996 115.31208999999997 C 11.822073999999962 115.63520999999997 11.36972399999996 116.08753999999998 10.982002999999962 116.47523999999997 C 10.59428199999996 116.92760999999997 10.206562999999962 117.31531999999997 9.883472599999962 117.76762999999997 C 9.560382499999962 118.28457999999996 9.172661799999961 118.73693999999996 8.914170999999962 119.25389999999997 C 8.591080999999962 119.70624999999997 8.267991099999962 120.22318999999997 8.009500299999962 120.74011999999998 C 7.750918799999962 121.32172999999997 7.492550499999962 121.83866999999998 7.298689599999962 122.42025999999997 C 7.1048296999999625 122.93720999999996 6.910969699999962 123.51877999999996 6.717109699999962 124.10036999999997 C 6.587971499999962 124.61730999999997 6.458528399999961 125.13426999999997 6.394019899999962 125.65119999999997 C 6.394019899999962 125.71599999999998 6.329300899999962 125.78035999999997 6.329300899999962 125.84506999999998 C 6.200161699999962 126.42667999999998 6.200161699999962 127.20212999999998 6.135440099999961 127.58985999999997 C 6.070721099999961 128.04217999999997 6.006302799999961 128.42987999999997 6.006302799999961 128.88223999999997 C 6.006302799999961 129.14081999999996 6.006302799999961 129.46378999999996 6.071021799999961 129.72226999999998 C 6.135740799999962 130.17462999999998 6.200158899999962 130.56233999999998 6.329603199999961 130.95009 C 6.458741399999961 131.33775 6.588184699999961 131.72547999999998 6.781923299999961 132.11320999999998 C 6.781923299999961 132.17790999999997 6.781923299999961 132.17790999999997 6.781923299999961 132.17790999999997 C 6.97578319999996 132.56565999999998 7.234273899999961 132.95335999999998 7.492734099999961 133.34107999999998 C 7.7513154999999605 133.72879999999998 8.00971449999996 134.11651999999998 8.33280449999996 134.50424999999998 C 8.65589439999996 134.82734 9.043615399999961 135.21502999999998 9.43133489999996 135.53814 C 9.81905579999996 135.92586 10.20677699999996 136.24895 10.65909599999996 136.57204 C 12.209976999999961 137.92907 12.597696999999961 138.38142 14.60090199999996 139.41530999999998 C 14.92398899999996 139.60917999999998 15.24711199999996 139.73842 15.63483199999996 139.93227999999996 C 15.699561999999961 139.93227999999996 15.76397099999996 139.99697999999995 15.82869099999996 139.99697999999995 C 15.82869099999996 140.12610999999995 15.82869099999996 140.19084999999995 15.893420999999961 140.32010999999994 C 15.95814099999996 140.83706999999995 16.08727999999996 141.35399999999996 16.21651099999996 141.87096999999994 C 16.345648999999963 142.45254999999995 16.539631999999962 142.96951999999993 16.733491999999963 143.42183999999995 C 16.927351999999964 143.80956999999995 17.056581999999963 144.19726999999995 17.25044299999996 144.58500999999995 C 17.315162999999963 144.71415999999996 17.37958299999996 144.84358999999995 17.444302999999962 144.90809999999996 C 17.702883999999962 145.42503999999997 17.961252999999964 145.87741999999997 18.219712999999963 146.32971999999995 C 18.542833999999964 146.78204999999994 18.865922999999963 147.23437999999996 19.189011999999963 147.68674999999996 C 19.51210399999996 148.07444999999996 19.899824999999964 148.52678999999995 20.28754399999996 148.91449999999995 C 20.67526499999996 149.30222999999995 21.06298599999996 149.62532999999993 21.51533699999996 150.01301999999995 C 21.51533699999996 150.01301999999995 21.58006699999996 150.07781999999995 21.64447399999996 150.07781999999995 C 22.03219599999996 150.40093999999993 22.41991399999996 150.72403999999995 22.80763599999996 150.98247999999995 C 23.25995599999996 151.30558999999997 23.71230599999996 151.56404999999995 24.22925499999996 151.82254999999995 C 24.68160599999996 152.08112999999994 25.19855699999996 152.33949999999996 25.71550699999996 152.53336999999996 C 26.10322799999996 152.72722999999996 26.555546999999958 152.85647999999998 27.00789899999996 152.98570999999995 C 27.07262899999996 153.05050999999995 27.13703699999996 153.05050999999995 27.26648099999996 153.11486999999997 C 27.52506199999996 153.17966999999996 27.84802899999996 153.24398999999997 28.10651999999996 153.30870999999996 C 27.91266099999996 156.79815999999997 27.84793799999996 160.09374999999997 28.365102999999962 161.25692999999995 C 28.946652999999962 162.54930999999996 31.789923999999964 158.60751999999997 34.63319699999996 154.08415999999994 C 34.24547799999996 158.54290999999995 33.98698599999996 163.77705999999995 34.63319699999996 165.32796999999994 C 35.34400599999996 166.94341999999995 39.221178999999964 161.90309999999994 42.58139999999996 156.34581999999995 C 88.39666199999996 145.74824999999996 130.20557999999994 177.41181999999995 134.59968999999995 222.12854999999996 C 133.75962999999996 215.14962999999997 125.16522999999995 211.27246999999997 121.22345999999996 212.24177999999995 C 119.28484999999996 217.02360999999996 115.98925999999996 223.16245999999995 110.69046999999996 226.97501999999994 C 111.14279999999997 222.71011999999993 110.94902999999996 218.31600999999995 110.04427999999996 214.05109999999993 C 108.62262999999996 219.99610999999993 105.84397999999996 225.55341999999993 102.03140999999997 230.33524999999995 L 102.03140999999997 230.33524999999995 C 95.89255299999996 230.78756999999993 89.75368099999997 227.81505999999993 86.52268999999997 223.35633999999993 C 86.26410799999996 223.16245999999992 86.19959899999996 222.77474999999993 86.00573899999996 222.51627999999994 C 85.81187699999997 222.06389999999993 85.61801999999996 221.61160999999993 85.48878799999996 221.15924999999993 C 85.29492899999995 220.70692999999994 85.16569899999996 220.25457999999992 85.10106899999995 219.80225999999993 C 85.03633899999996 219.34989999999993 85.03633899999996 218.89756999999994 85.03633899999996 218.38062999999994 C 85.03633899999996 218.05750999999995 85.03633899999996 217.73442999999995 85.03633899999996 217.41134999999994 C 85.10106899999995 216.95896999999994 85.23019899999996 216.50663999999995 85.35942999999996 216.05429999999996 C 85.48856799999996 215.60197999999997 85.61800999999996 215.14962999999995 85.81177999999996 214.69728999999995 C 86.07036199999996 214.24497999999994 86.26409999999996 213.79262999999995 86.58722099999996 213.34030999999996 C 87.68575099999995 210.23852999999997 87.68575099999995 207.71838999999997 85.68255099999996 206.23214999999996 C 85.29482999999996 205.97356999999997 84.90710999999996 205.77978999999996 84.45475999999996 205.58592999999996 C 84.19617599999997 205.52122999999997 83.87317799999997 205.39206999999996 83.61471999999996 205.32735999999997 C 83.42085899999996 205.26265999999998 83.29162999999997 205.19819999999996 83.09776899999996 205.13348999999997 C 82.64541799999996 205.00434999999996 82.19306699999996 204.87489999999997 81.74074699999996 204.81039999999996 C 81.28839699999996 204.68126999999996 80.83607699999996 204.61653999999996 80.38372699999995 204.61653999999996 C 79.93140599999995 204.55173999999997 79.41442399999995 204.48739999999995 78.96210499999995 204.48739999999995 C 78.63901599999996 204.48739999999995 78.31589499999995 204.55209999999994 77.99280399999995 204.55209999999994 C 77.47585499999995 204.55209999999994 77.02350499999994 204.61689999999993 76.57118299999995 204.74595999999994 C 76.11883299999995 204.81075999999993 75.66651399999995 204.87508999999994 75.21416399999995 205.00451999999993 C 74.76184199999996 205.13366999999994 74.30949099999995 205.26310999999993 73.85714099999996 205.45689999999993 C 73.40482199999995 205.65074999999993 73.01709999999996 205.84460999999993 72.56475199999996 206.03846999999993 C 72.17706199999995 206.23233999999994 71.78933999999995 206.49078999999992 71.33699099999995 206.68464999999992 C 56.280619999999956 216.50681999999992 65.26275599999995 239.51138999999992 75.53725499999996 246.16720999999993 C 71.66007999999997 246.87801999999994 67.71830799999996 247.71810999999994 66.61977599999996 248.55812999999992 C 66.55504599999996 248.6228299999999 66.49063799999996 248.68727999999993 66.49063799999996 248.68727999999993 C 69.26927999999997 250.36736999999994 72.17715399999996 251.78900999999993 75.21425399999995 253.01676999999992 C 79.34991899999996 254.37378999999993 83.74403999999996 255.60155999999992 85.68264099999996 256.1185299999999 C 85.68264099999996 256.1185299999999 85.68264099999996 256.1832299999999 85.68264099999996 256.1832299999999 C 91.04606499999996 257.28176999999994 96.47412099999997 257.66948999999994 101.96677999999996 257.3463999999999 C 130.59326999999996 255.3431899999999 154.05017999999995 233.5663699999999 158.31507999999997 204.8752899999999 C 158.44421999999997 205.4568799999999 158.57365999999996 205.9738099999999 158.70279999999997 206.55540999999988 L 158.70279999999997 206.55540999999988 C 158.89666999999997 207.71852999999987 159.15511999999995 208.94630999999987 159.28434999999996 210.1740799999999 C 159.28434999999996 210.1740799999999 159.28434999999996 210.1740799999999 159.28434999999996 210.23887999999988 C 159.41348999999997 210.82045999999988 159.47820999999996 211.40202999999988 159.54292999999996 211.9189799999999 C 159.54292999999996 212.0481199999999 159.54292999999996 212.1128399999999 159.54292999999996 212.1775699999999 C 159.60772999999995 212.7591399999999 159.67207999999997 213.3407299999999 159.67207999999997 213.8576699999999 C 159.73677999999995 214.5684899999999 159.80121999999997 215.2792899999999 159.80121999999997 215.9901399999999 C 159.80121999999997 216.31322999999992 159.80121999999997 216.6363299999999 159.80121999999997 217.0240399999999 C 159.80121999999997 217.3471599999999 159.86591999999996 217.7348399999999 159.86591999999996 218.0579599999999 C 159.86591999999996 218.4456899999999 159.80121999999997 218.8333799999999 159.80121999999997 219.2210999999999 C 159.80121999999997 219.54422999999989 159.80121999999997 219.8673099999999 159.80121999999997 220.1257699999999 C 159.80121999999997 220.5781299999999 159.73641999999998 220.9658299999999 159.73641999999998 221.4181699999999 C 159.73641999999998 221.67672999999988 159.73641999999998 221.9351299999999 159.67172 222.25822999999988 C 159.67172 222.71058999999988 159.60702 223.1628899999999 159.60702 223.67984999999987 C 159.54222000000001 223.87370999999987 159.54222000000001 224.06756999999988 159.54222000000001 224.26143999999988 C 159.47752000000003 224.7783999999999 159.41308 225.23073999999988 159.34835 225.74769999999987 C 159.34835 225.94156999999987 159.34835 226.13540999999987 159.28365000000002 226.32928999999987 C 159.21885000000003 226.97545999999988 159.08980000000003 227.55705999999986 159.0251 228.20322999999988 C 159.0251 228.20322999999988 159.0251 228.26802999999987 159.0251 228.26802999999987 L 159.0251 228.33272999999986 C 158.89596 228.91429999999986 158.7665 229.56048999999985 158.63735 230.14205999999984 C 158.63735 230.20675999999983 158.63735 230.27119999999985 158.63735 230.33592999999985 C 158.50823 230.91748999999984 158.37877 231.49908999999985 158.24965 232.08063999999985 C 158.24965 232.14543999999984 158.18495000000001 232.27450999999985 158.18495000000001 232.33919999999983 C 158.05579 232.92079999999984 157.92635 233.50236999999984 157.73263000000003 234.08397999999983 C 157.73263000000003 234.1486799999998 157.73263000000003 234.21309999999983 157.73263000000003 234.27781999999982 C 157.53877000000003 234.92398999999983 157.34490000000002 235.5055799999998 157.21565000000004 236.0871599999998 C 157.15095000000005 236.1518599999998 157.15095000000005 236.21629999999982 157.15095000000005 236.21629999999982 C 156.95708000000005 236.86250999999982 156.76324000000005 237.50868999999983 156.56940000000006 238.15487999999982 C 156.31082000000006 238.80108999999982 156.11706000000007 239.38265999999982 155.85859000000005 240.0288599999998 C 155.60002000000006 240.6750599999998 155.40623000000005 241.3212599999998 155.14776000000006 241.90281999999982 C 154.88917000000006 242.54903999999982 154.63079000000008 243.13061999999982 154.37233000000006 243.77678999999983 C 154.37233000000006 243.77678999999983 154.30753000000007 243.77678999999983 154.30753000000007 243.77678999999983 C 154.04893000000007 244.35835999999983 153.79054000000008 245.00457999999983 153.46743000000006 245.58616999999984 C 153.46743000000006 245.58616999999984 153.46743000000006 245.58616999999984 153.46743000000006 245.58616999999984 C 153.46743000000006 245.58616999999984 153.46743000000006 245.58616999999984 153.46743000000006 245.58616999999984 C 153.40273000000008 245.77999999999983 153.33831000000006 245.90925999999985 153.27359000000007 246.03846999999985 C 153.20889000000008 246.10326999999984 153.20889000000008 246.16760999999985 153.14445000000006 246.23234999999985 C 148.94419000000005 254.69748999999985 142.74068000000005 262.1287399999999 134.98636000000005 267.94451999999984 L 134.98636000000005 267.94451999999984 C 134.46941000000004 268.2676099999998 133.95244000000005 268.65533999999985 133.43550000000005 269.04303999999985 C 133.43550000000005 269.04303999999985 133.43550000000005 269.04303999999985 133.43550000000005 269.04303999999985 C 133.30635000000004 269.17218999999983 133.11238000000006 269.2369199999998 132.98315000000005 269.3661299999998 C 132.53080000000006 269.68922999999984 132.07847000000004 270.01230999999984 131.56154000000006 270.33543999999983 L 131.75539000000006 270.72315999999984 L 131.82009000000005 270.72315999999984 L 131.82009000000005 270.72315999999984 C 132.72475000000006 270.59402999999986 133.62943000000004 270.46457999999984 134.53411000000006 270.33543999999983 L 134.59881000000004 270.33543999999983 C 136.27893000000003 270.07685999999984 137.95904000000004 269.75385999999986 139.63916000000003 269.4307699999998 C 140.09147000000004 269.36596999999983 140.60846000000004 269.2369199999998 141.06077000000002 269.1076499999998 C 141.38386000000003 269.0428499999998 141.64235000000002 268.97851999999983 141.96544000000003 268.91378999999984 C 142.41779000000002 268.84898999999984 142.87012000000004 268.71992999999986 143.32248000000004 268.6552199999998 C 143.71018000000004 268.5260799999998 144.09791000000004 268.46133999999984 144.48562000000004 268.3321199999998 C 150.94757000000004 266.7812299999998 157.21569000000005 264.6487699999998 163.22527000000005 262.1286299999998 C 152.95079000000004 276.1510599999998 139.18680000000006 287.4594999999998 123.09653000000006 294.8907499999998 C 130.52780000000007 294.3737899999998 137.95904000000007 293.1460299999998 145.13181000000006 291.0782099999998 C 171.17351000000005 283.3884399999998 193.07953000000006 265.8765599999998 206.19730000000004 242.29040999999978 C 203.54790000000003 257.2175499999998 197.60290000000003 271.4338499999998 188.81465000000003 283.8408199999998 C 195.08274000000003 279.70512999999977 200.83388000000002 274.9232899999998 206.06807000000003 269.49524999999977 C 220.54285000000004 254.37427999999977 230.04195000000004 235.18228999999977 233.27290000000005 214.56859999999978 C 235.46998000000005 224.77849999999978 236.11618000000004 235.31152999999978 235.14688000000004 245.71525999999977 C 281.80222000000003 180.64333999999977 239.02405000000005 113.18049999999977 221.12444000000005 95.41011899999978 C 221.05964000000006 95.28098599999979 220.99530000000004 95.21626099999978 220.99530000000004 95.08702999999979 C 220.93050000000005 95.15172999999979 220.93050000000005 95.15172999999979 220.93050000000005 95.21617399999978 C 220.93050000000005 95.15146399999978 220.93050000000005 95.15146399999978 220.86580000000006 95.08702999999979 C 220.86580000000006 95.86247199999978 220.80110000000008 96.63787799999979 220.73666000000006 97.41332099999978 C 220.54279000000005 98.89957099999978 220.34895000000006 100.32119999999978 220.09045000000006 101.74284999999978 C 219.76737000000006 103.16446999999978 219.37964000000005 104.58606999999978 218.99191000000005 106.00772999999978 C 218.53959000000006 107.36471999999978 218.02266000000006 108.78634999999979 217.44106000000005 110.14337999999978 C 216.85948000000005 111.43574999999979 216.21328000000005 112.79276999999978 215.50247000000005 114.08517999999978 C 214.79165000000003 115.31295999999978 214.01622000000003 116.60533999999979 213.17618000000004 117.76847999999978 C 212.33612000000005 118.99627999999979 211.43144000000004 120.15940999999978 210.52675000000005 121.25791999999979 C 209.55744000000004 122.42109999999978 208.52356000000006 123.45501999999979 207.48963000000006 124.48892999999978 C 206.84345000000008 125.07050999999979 206.26188000000008 125.58745999999978 205.61565000000007 126.10438999999978 C 205.09871000000007 126.55674999999978 204.64638000000008 126.94447999999979 204.12940000000006 127.39677999999978 C 202.96626000000006 128.3014599999998 201.80311000000006 129.1415199999998 200.51073000000005 129.9169699999998 C 199.28295000000006 130.6923899999998 197.99059000000005 131.4678299999998 196.69819000000004 132.1140399999998 C 195.34117000000003 132.76022999999978 193.98415000000003 133.34179999999978 192.62715000000003 133.92338999999978 C 191.27013000000002 134.4403199999998 189.84851000000003 134.89266999999978 188.42684000000003 135.2803999999998 C 187.00523000000004 135.66809999999978 185.51899000000003 135.9912099999998 184.09735000000003 136.24967999999978 C 182.61112000000003 136.50825999999978 181.12486000000004 136.63738999999978 179.70323000000005 136.76664999999977 C 178.66931000000005 136.83134999999976 177.63541000000004 136.89579999999978 176.60148000000004 136.89579999999978 C 175.11522000000005 136.89579999999978 173.62900000000005 136.76664999999977 172.20736000000005 136.6372199999998 C 170.72112000000004 136.50807999999978 169.23485000000005 136.3140799999998 167.81323000000006 135.99098999999978 C 166.32698000000005 135.7324099999998 164.90533000000005 135.3447799999998 163.48370000000006 134.89247999999978 L 163.41900000000007 134.89247999999978 C 164.84063000000006 134.76333999999977 166.26227000000006 134.63387999999978 167.68392000000006 134.3755099999998 C 169.17014000000006 134.1169299999998 170.59177000000005 133.7939499999998 172.01342000000005 133.40619999999979 C 173.43504000000004 133.0184899999998 174.85667000000007 132.5661399999998 176.21368000000007 132.0491999999998 C 177.63530000000006 131.53223999999977 178.99233000000007 130.8860699999998 180.28473000000008 130.2398399999998 C 181.64173000000008 129.5936299999998 182.86951000000008 128.8828399999998 184.16189000000008 128.10739999999979 C 185.38965000000007 127.26734999999978 186.6174300000001 126.42730999999978 187.78058000000007 125.52260999999979 C 188.94374000000008 124.61794999999978 190.04225000000008 123.64866999999978 191.07620000000009 122.61474999999979 C 192.1747300000001 121.64542999999979 193.1440100000001 120.54690999999978 194.1133100000001 119.44836999999978 C 195.0825800000001 118.28524999999978 195.9872700000001 117.12208999999979 196.8273300000001 115.95892999999978 C 196.9564800000001 115.76505999999978 197.0859200000001 115.50660999999978 197.2150700000001 115.31273999999978 C 197.86124000000012 114.27881999999978 198.5074200000001 113.24490999999978 199.0889900000001 112.21097999999978 C 199.7998200000001 110.91858999999978 200.44603000000012 109.62618999999978 201.02759000000012 108.26920999999977 C 201.60918000000012 106.91218999999977 202.1261400000001 105.55515999999977 202.57848000000013 104.13354999999977 C 203.0308000000001 102.77651999999978 203.35390000000012 101.35490999999978 203.67701000000014 99.93329199999977 C 203.93560000000014 98.44703399999976 204.19395000000014 97.02538199999977 204.32320000000013 95.60376399999977 C 204.45234000000013 94.11751999999977 204.58177000000012 92.63126099999977 204.58177000000012 91.20964499999977 C 204.58177000000012 90.17571699999976 204.51697000000013 89.14181499999977 204.45265000000012 88.10791199999977 C 204.3235000000001 86.62166599999978 204.1295400000001 85.20001199999977 203.9356900000001 83.77839299999977 C 203.6771000000001 82.29213599999977 203.3541200000001 80.87051999999977 202.9663800000001 79.44886399999977 C 202.5140700000001 78.09187299999978 202.0617100000001 76.67022999999978 201.5447700000001 75.31324099999978 C 201.02778000000012 73.95621299999978 200.3816200000001 72.59919899999977 199.7353900000001 71.30679799999977 C 199.0245800000001 70.01440999999977 198.31378000000012 68.72202199999977 197.53835000000012 67.49426199999978 C 196.69830000000013 66.26650199999978 195.85822000000013 65.10334499999978 194.95355000000012 63.940174999999776 C 193.98428000000013 62.841643999999775 193.01498000000012 61.743114999999776 191.98104000000012 60.64458499999978 C 191.46410000000012 60.12763799999978 190.8825100000001 59.54605299999978 190.3009400000001 59.02910899999978 C 187.3930700000001 56.76740899999978 184.35594000000012 54.634949999999776 181.3188400000001 52.69637699999978 C 180.86651000000012 52.437802999999775 180.47879000000012 52.244034999999776 180.02644000000012 52.05016499999978 C 177.8939800000001 50.69317299999978 175.89078000000012 49.98233399999978 173.88759000000013 49.33615799999978 z" stroke-linecap="round" />
</g>
</svg>