<?xml version="1.0" encoding="UTF-8" standalone="no" ?>
<!DOCTYPE svg PUBLIC "-//W3C//DTD SVG 1.1//EN" "http://www.w3.org/Graphics/SVG/1.1/DTD/svg11.dtd">
<svg xmlns="http://www.w3.org/2000/svg" xmlns:xlink="http://www.w3.org/1999/xlink" version="1.1" width="1080" height="1080" viewBox="0 0 1080 1080" xml:space="preserve">
<desc>Created with Fabric.js 5.2.4</desc>
<defs>
</defs>
<rect x="0" y="0" width="100%" height="100%" fill="transparent"></rect>
<g transform="matrix(1 0 0 1 540 540)" id="b7f7936c-67eb-4a98-afc6-fb42e27548ff"  >
<rect style="stroke: none; stroke-width: 1; stroke-dasharray: none; stroke-linecap: butt; stroke-dashoffset: 0; stroke-linejoin: miter; stroke-miterlimit: 4; fill: rgb(255,255,255); fill-rule: nonzero; opacity: 1; visibility: hidden;" vector-effect="non-scaling-stroke"  x="-540" y="-540" rx="0" ry="0" width="1080" height="1080" />
</g>
<g transform="matrix(1 0 0 1 540 540)" id="1e1639b4-650e-4771-b1c0-a3ed87ea7819"  >
</g>
<g transform="matrix(2.74 0 0 2.74 540 540)"  >
<g style=""   >
		<g transform="matrix(0.86 0 0 0.86 85.38 0.17)"  >
<path style="stroke: none; stroke-width: 1; stroke-dasharray: none; stroke-linecap: butt; stroke-dashoffset: 0; stroke-linejoin: miter; stroke-miterlimit: 4; fill: rgb(255,255,255); fill-rule: nonzero; opacity: 1;" vector-effect="non-scaling-stroke"  transform=" translate(-296.23, -39.69)" d="M 261.919 0.0330722 L 330.547 0.0330722 L 330.547 12.7 L 303.323 12.7 L 303.323 79.339 L 289.71 79.339 L 289.71 12.7 L 261.919 12.7 L 261.919 0.0330722 Z" stroke-linecap="round" />
</g>
		<g transform="matrix(0.86 0 0 0.86 -70.78 0.17)"  >
<path style="stroke: none; stroke-width: 1; stroke-dasharray: none; stroke-linecap: butt; stroke-dashoffset: 0; stroke-linejoin: miter; stroke-miterlimit: 4; fill: rgb(255,255,255); fill-rule: nonzero; opacity: 1;" vector-effect="non-scaling-stroke"  transform=" translate(-114.74, -39.69)" d="M 149.052 0.0330722 L 149.052 12.7 L 94.0421 12.7 L 94.0421 33.0772 L 138.281 33.0772 L 138.281 45.7441 L 94.0421 45.7441 L 94.0421 66.6721 L 149.052 66.6721 L 149.052 79.339 L 80.43 79.339 L 80.43 12.7 L 80.4243 12.7 L 80.4243 0.0330722 L 149.052 0.0330722 Z" stroke-linecap="round" />
</g>
		<g transform="matrix(0.86 0 0 0.86 8.04 0.2)"  >
<path style="stroke: none; stroke-width: 1; stroke-dasharray: none; stroke-linecap: butt; stroke-dashoffset: 0; stroke-linejoin: miter; stroke-miterlimit: 4; fill: rgb(255,255,255); fill-rule: nonzero; opacity: 1;" vector-effect="non-scaling-stroke"  transform=" translate(-206.34, -39.72)" d="M 183.32 0.0661486 L 165.506 0.0661486 L 229.312 79.3721 L 247.178 79.3721 L 215.271 39.7464 L 247.127 0.126654 L 229.312 0.154184 L 206.352 28.6697 L 183.32 0.0661486 Z" stroke-linecap="round" />
</g>
		<g transform="matrix(0.86 0 0 0.86 -11.59 19.83)"  >
<path style="stroke: none; stroke-width: 1; stroke-dasharray: none; stroke-linecap: butt; stroke-dashoffset: 0; stroke-linejoin: miter; stroke-miterlimit: 4; fill: rgb(255,255,255); fill-rule: nonzero; opacity: 1;" vector-effect="non-scaling-stroke"  transform=" translate(-183.53, -62.53)" d="M 201.6 56.7148 L 192.679 45.6229 L 165.455 79.4326 L 183.32 79.4326 L 201.6 56.7148 Z" stroke-linecap="round" />
</g>
		<g transform="matrix(0.86 0 0 0.86 -134.69 0.16)"  >
<path style="stroke: none; stroke-width: 1; stroke-dasharray: none; stroke-linecap: butt; stroke-dashoffset: 0; stroke-linejoin: miter; stroke-miterlimit: 4; fill: rgb(255,255,255); fill-rule: evenodd; opacity: 1;" vector-effect="non-scaling-stroke"  transform=" translate(-40.45, -39.67)" d="M 80.907 79.339 L 17.0151 0 L 0 0 L 0 79.3059 L 13.6121 79.3059 L 13.6121 16.9516 L 63.8067 79.339 L 80.907 79.339 Z" stroke-linecap="round" />
</g>
		<g transform="matrix(0.86 0 0 0.86 117.53 30.83)"  >
<path style="stroke: none; stroke-width: 1; stroke-dasharray: none; stroke-linecap: butt; stroke-dashoffset: 0; stroke-linejoin: miter; stroke-miterlimit: 4; fill: rgb(255,255,255); fill-rule: nonzero; opacity: 1;" vector-effect="non-scaling-stroke"  transform=" translate(-333.6, -75.32)" d="M 333.607 78.8546 C 332.61 78.8546 331.762 78.5093 331.052 77.8186 C 330.342 77.1279 329.991 76.2917 330 75.3011 C 329.991 74.3377 330.342 73.5106 331.052 72.8199 C 331.762 72.1292 332.61 71.7838 333.607 71.7838 C 334.566 71.7838 335.405 72.1292 336.115 72.8199 C 336.835 73.5106 337.194 74.3377 337.204 75.3011 C 337.194 75.9554 337.028 76.5552 336.696 77.0914 C 336.355 77.6368 335.922 78.064 335.377 78.373 C 334.842 78.6911 334.252 78.8546 333.607 78.8546 Z" stroke-linecap="round" />
</g>
		<g transform="matrix(0.86 0 0 0.86 133.59 19.55)"  >
<path style="stroke: none; stroke-width: 1; stroke-dasharray: none; stroke-linecap: butt; stroke-dashoffset: 0; stroke-linejoin: miter; stroke-miterlimit: 4; fill: rgb(255,255,255); fill-rule: nonzero; opacity: 1;" vector-effect="non-scaling-stroke"  transform=" translate(-352.26, -62.2)" d="M 356.84 45.4453 L 362.872 45.4453 L 362.872 68.6846 C 362.863 70.8204 362.401 72.6472 361.498 74.1832 C 360.585 75.7191 359.321 76.8914 357.698 77.7185 C 356.084 78.5364 354.193 78.9546 352.044 78.9546 C 350.079 78.9546 348.318 78.6001 346.75 77.9094 C 345.182 77.2187 343.937 76.1826 343.024 74.8193 C 342.101 73.456 341.649 71.7565 341.649 69.7207 L 347.691 69.7207 C 347.7 70.6114 347.903 71.3838 348.29 72.0291 C 348.677 72.6744 349.212 73.1651 349.895 73.5105 C 350.586 73.8559 351.38 74.0286 352.274 74.0286 C 353.243 74.0286 354.073 73.8286 354.746 73.4196 C 355.419 73.0197 355.936 72.4199 356.296 71.6201 C 356.646 70.8295 356.831 69.8479 356.84 68.6846 L 356.84 45.4453 Z" stroke-linecap="round" />
</g>
		<g transform="matrix(0.86 0 0 0.86 158.43 19.37)"  >
<path style="stroke: none; stroke-width: 1; stroke-dasharray: none; stroke-linecap: butt; stroke-dashoffset: 0; stroke-linejoin: miter; stroke-miterlimit: 4; fill: rgb(255,255,255); fill-rule: nonzero; opacity: 1;" vector-effect="non-scaling-stroke"  transform=" translate(-381.13, -62)" d="M 387.691 54.5338 C 387.544 53.1251 386.898 52.0254 385.773 51.2438 C 384.638 50.4531 383.172 50.0623 381.373 50.0623 C 380.11 50.0623 379.022 50.2532 378.118 50.6258 C 377.214 51.0075 376.513 51.5164 376.033 52.1617 C 375.554 52.807 375.314 53.5432 375.295 54.3703 C 375.295 55.061 375.461 55.6608 375.784 56.1607 C 376.107 56.6696 376.54 57.0968 377.103 57.4422 C 377.656 57.7966 378.274 58.0874 378.948 58.3237 C 379.63 58.56 380.313 58.76 380.995 58.9236 L 384.14 59.6961 C 385.404 59.9869 386.631 60.3778 387.802 60.8776 C 388.973 61.3684 390.034 61.9955 390.965 62.7498 C 391.897 63.5042 392.635 64.413 393.179 65.4764 C 393.723 66.5397 394 67.7848 394 69.2208 C 394 71.1566 393.502 72.8562 392.496 74.3285 C 391.491 75.7917 390.043 76.9369 388.143 77.764 C 386.252 78.582 383.965 79 381.272 79 C 378.671 79 376.402 78.6002 374.493 77.8004 C 372.575 77.0097 371.08 75.8463 370.001 74.3194 C 368.922 72.7926 368.341 70.9294 368.258 68.7391 L 374.235 68.7391 C 374.318 69.8842 374.687 70.8386 375.314 71.6111 C 375.95 72.3745 376.78 72.938 377.795 73.3197 C 378.819 73.6923 379.962 73.8832 381.226 73.8832 C 382.545 73.8832 383.707 73.6832 384.712 73.2924 C 385.708 72.9016 386.492 72.3564 387.055 71.6475 C 387.627 70.9476 387.913 70.1206 387.922 69.1754 C 387.913 68.312 387.654 67.5939 387.156 67.0304 C 386.649 66.467 385.948 65.9944 385.053 65.6127 C 384.15 65.231 383.098 64.8856 381.899 64.5857 L 378.081 63.6223 C 375.323 62.9225 373.137 61.8592 371.541 60.4323 C 369.937 59.0054 369.143 57.115 369.143 54.7429 C 369.143 52.798 369.678 51.0894 370.758 49.6261 C 371.827 48.1629 373.294 47.0268 375.148 46.2179 C 377.011 45.4 379.114 45 381.456 45 C 383.836 45 385.92 45.4 387.719 46.2179 C 389.517 47.0268 390.929 48.1538 391.952 49.5897 C 392.976 51.0257 393.511 52.6707 393.539 54.5338 L 387.691 54.5338 Z" stroke-linecap="round" />
</g>
</g>
</g>
<g transform="matrix(NaN NaN NaN NaN 0 0)"  >
<g style=""   >
</g>
</g>
</svg>