<?xml version="1.0" encoding="UTF-8" standalone="no" ?>
<!DOCTYPE svg PUBLIC "-//W3C//DTD SVG 1.1//EN" "http://www.w3.org/Graphics/SVG/1.1/DTD/svg11.dtd">
<svg xmlns="http://www.w3.org/2000/svg" xmlns:xlink="http://www.w3.org/1999/xlink" version="1.1" width="1080" height="1080" viewBox="0 0 1080 1080" xml:space="preserve">
<desc>Created with Fabric.js 5.2.4</desc>
<defs>
</defs>
<g transform="matrix(1 0 0 1 540 540)" id="462d82bc-1318-4c90-afff-324615723932"  >
<rect style="stroke: none; stroke-width: 1; stroke-dasharray: none; stroke-linecap: butt; stroke-dashoffset: 0; stroke-linejoin: miter; stroke-miterlimit: 4; fill: rgb(255,255,255); fill-rule: nonzero; opacity: 1; visibility: hidden;" vector-effect="non-scaling-stroke"  x="-540" y="-540" rx="0" ry="0" width="1080" height="1080" />
</g>
<g transform="matrix(1 0 0 1 540 540)" id="d47bd511-7850-4bc6-b606-ef76f9827826"  >
</g>
<g transform="matrix(0.36 0 0 0.36 540 540)"  >
<g style="" vector-effect="non-scaling-stroke"   >
		<g transform="matrix(0.75 0 0 0.75 -6.9 -177.47)"  >
<path style="stroke: none; stroke-width: 1; stroke-dasharray: none; stroke-linecap: butt; stroke-dashoffset: 0; stroke-linejoin: miter; stroke-miterlimit: 4; fill: rgb(255,255,255); fill-rule: nonzero; opacity: 1;" vector-effect="non-scaling-stroke"  transform=" translate(-1773, -1250)" d="M 2870 1250.22 C 2870 1104.88 2687.99 967.1410000000001 2408.93 881.725 C 2473.33 597.301 2444.71 371.014 2318.5899999999997 298.56600000000003 C 2289.5199999999995 281.572 2255.5399999999995 273.52200000000005 2218.4199999999996 273.52200000000005 L 2218.4199999999996 373.25000000000006 C 2238.99 373.25000000000006 2255.5399999999995 377.27500000000003 2269.3999999999996 384.87700000000007 C 2330.22 419.75900000000007 2356.6099999999997 552.58 2336.0299999999997 723.413 C 2331.12 765.451 2323.0699999999997 809.724 2313.2299999999996 854.892 C 2225.5699999999997 833.426 2129.8699999999994 816.8800000000001 2029.2499999999995 806.147 C 1968.8799999999997 723.413 1906.2699999999995 648.282 1843.2099999999996 582.543 C 1988.9999999999995 447.039 2125.8499999999995 372.802 2218.8699999999994 372.802 L 2218.8699999999994 273.07500000000005 C 2095.8799999999997 273.07500000000005 1934.8899999999994 360.72800000000007 1772.1099999999994 512.778 C 1609.3199999999995 361.622 1448.3299999999995 274.86400000000003 1325.3499999999995 274.86400000000003 L 1325.3499999999995 374.591 C 1417.9199999999994 374.591 1555.2099999999996 448.38100000000003 1700.9999999999995 582.99 C 1638.3899999999996 648.73 1575.7799999999995 723.413 1516.2999999999995 806.147 C 1415.2299999999996 816.88 1319.5299999999995 833.426 1231.8799999999994 855.339 C 1221.5899999999995 810.619 1213.9899999999993 767.239 1208.6199999999994 725.6490000000001 C 1187.6099999999994 554.8160000000001 1213.5399999999995 421.9950000000001 1273.9199999999994 386.6660000000001 C 1287.3299999999995 378.6160000000001 1304.7699999999993 375.0390000000001 1325.3499999999995 375.0390000000001 L 1325.3499999999995 275.3110000000001 C 1287.7799999999995 275.3110000000001 1253.7899999999995 283.3610000000001 1224.2799999999995 300.3550000000001 C 1098.6099999999994 372.8020000000001 1070.4399999999996 598.642 1135.2799999999995 882.172 C 857.119 968.036 676 1105.33 676 1250.22 C 676 1395.57 858.013 1533.31 1137.07 1618.72 C 1072.6699999999998 1903.15 1101.29 2129.43 1227.4099999999999 2201.88 C 1256.4799999999998 2218.87 1290.4599999999998 2226.92 1328.0299999999997 2226.92 C 1451.0099999999998 2226.92 1612.0099999999998 2139.27 1774.7899999999997 1987.22 C 1937.5699999999997 2138.38 2098.5699999999997 2225.14 2221.5499999999997 2225.14 C 2259.1099999999997 2225.14 2293.1 2217.0899999999997 2322.62 2200.0899999999997 C 2448.2799999999997 2127.64 2476.46 1901.7999999999997 2411.6099999999997 1618.2799999999997 C 2688.8799999999997 1532.8599999999997 2869.9999999999995 1395.1199999999997 2869.9999999999995 1250.2199999999998 z M 2287.74 951.936 C 2271.1899999999996 1009.63 2250.62 1069.1000000000001 2227.3599999999997 1128.58 C 2209.0299999999997 1092.81 2189.7999999999997 1057.03 2168.7799999999997 1021.2499999999999 C 2148.2099999999996 985.4769999999999 2126.29 950.5949999999999 2104.3799999999997 916.6069999999999 C 2167.8799999999997 925.9979999999998 2229.1499999999996 937.6259999999999 2287.74 951.9359999999998 z M 2082.91 1428.21 C 2048.0299999999997 1488.5900000000001 2012.2599999999998 1545.83 1975.1399999999999 1599.05 C 1908.4999999999998 1604.86 1840.9799999999998 1607.99 1773 1607.99 C 1705.47 1607.99 1637.94 1604.86 1571.76 1599.49 C 1534.64 1546.27 1498.41 1489.48 1463.53 1429.55 C 1429.54 1370.97 1398.69 1311.49 1370.51 1251.57 C 1398.24 1191.6399999999999 1429.54 1131.71 1463.09 1073.1299999999999 C 1497.97 1012.7599999999999 1533.74 955.5139999999999 1570.86 902.2959999999998 C 1637.5 896.4819999999999 1705.02 893.3519999999999 1773 893.3519999999999 C 1840.53 893.3519999999999 1908.06 896.4819999999999 1974.24 901.8489999999998 C 2011.36 955.0669999999998 2047.59 1011.8599999999998 2082.47 1071.7899999999997 C 2116.4599999999996 1130.3699999999997 2147.31 1189.8499999999997 2175.49 1249.7799999999997 C 2147.31 1309.6999999999998 2116.4599999999996 1369.6299999999997 2082.91 1428.2099999999998 z M 2227.3599999999997 1370.08 C 2250.8358492116827 1428.360019547145 2271.434015692172 1487.7582967700473 2289.079999999999 1548.0599999999995 C 2230.4899999999993 1562.37 2168.7799999999993 1574.45 2104.8299999999995 1583.84 C 2126.7399999999993 1549.4099999999999 2148.6499999999996 1514.08 2169.2299999999996 1477.85 C 2189.7999999999997 1442.08 2209.0299999999997 1405.85 2227.3599999999997 1370.08 z M 1773.8899999999996 1847.25 C 1732.2999999999997 1804.31 1690.7099999999996 1756.46 1649.5699999999997 1704.1399999999999 C 1689.8199999999997 1705.9299999999998 1730.9599999999998 1707.27 1772.5499999999997 1707.27 C 1814.5899999999997 1707.27 1856.1799999999998 1706.3799999999999 1896.8799999999997 1704.1399999999999 C 1858.4921929155448 1754.0248124372358 1817.4356172835578 1801.7978552756265 1773.8899999999996 1847.25 z M 1441.1699999999996 1583.84 C 1377.6699999999996 1574.4499999999998 1316.3999999999996 1562.82 1257.8199999999997 1548.51 C 1274.3599999999997 1490.82 1294.9399999999996 1431.34 1318.1899999999996 1371.86 C 1336.5299999999995 1407.6399999999999 1355.7599999999995 1443.4199999999998 1376.7699999999995 1479.1899999999998 C 1397.7899999999995 1514.9699999999998 1419.2599999999995 1549.85 1441.1699999999996 1583.84 z M 1771.6599999999996 653.2019999999999 C 1813.2499999999995 696.1329999999999 1854.8399999999997 743.9849999999999 1895.9799999999996 796.3079999999999 C 1855.7299999999996 794.5189999999999 1814.5899999999995 793.1779999999999 1772.9999999999995 793.1779999999999 C 1730.9599999999996 793.1779999999999 1689.3699999999994 794.0719999999999 1648.6799999999996 796.3079999999999 C 1687.0643809067321 746.4245639883675 1728.1176259334013 698.652847589063 1771.6599999999994 653.2020000000003 z M 1440.7199999999996 916.6069999999999 C 1418.8099999999995 951.0419999999999 1396.8999999999996 986.3709999999999 1376.3299999999995 1022.5899999999999 C 1355.7599999999995 1058.37 1336.5299999999995 1094.1499999999999 1318.1899999999994 1129.9199999999998 C 1294.7122751928227 1071.640409591238 1274.1173576514295 1012.2405424110826 1256.4799999999996 951.9359999999996 C 1315.0599999999993 938.0729999999999 1376.7699999999993 925.9979999999998 1440.7199999999993 916.6069999999999 z M 1036 1476.51 C 877.691 1408.98 775.28 1320.44 775.28 1250.22 C 775.28 1180.01 877.691 1091.02 1036 1023.94 C 1074.46 1007.3900000000001 1116.5 992.6320000000001 1159.88 978.769 C 1185.3700000000001 1066.42 1218.91 1157.65 1260.5 1251.12 C 1219.36 1344.1399999999999 1186.26 1434.9199999999998 1161.22 1522.1299999999999 C 1116.95 1508.26 1074.91 1493.06 1036 1476.51 z M 1276.6 2115.5699999999997 C 1215.78 2080.6899999999996 1189.3899999999999 1947.8699999999997 1209.9699999999998 1777.0299999999997 C 1214.8899999999999 1734.9999999999998 1222.9299999999998 1690.7199999999998 1232.7699999999998 1645.5499999999997 C 1320.4299999999998 1667.0199999999998 1416.1299999999997 1683.5699999999997 1516.7499999999998 1694.2999999999997 C 1577.1199999999997 1777.0299999999997 1639.7299999999998 1852.1599999999999 1702.7899999999997 1917.8999999999996 C 1556.9999999999998 2053.41 1420.1499999999996 2127.6399999999994 1327.1299999999997 2127.6399999999994 C 1307.0099999999998 2127.1999999999994 1290.0199999999998 2123.1699999999996 1276.5999999999997 2115.5699999999993 z M 2337.38 1774.7999999999997 C 2358.3900000000003 1945.6299999999997 2332.46 2078.45 2272.08 2113.7799999999997 C 2258.67 2121.83 2241.23 2125.41 2220.65 2125.41 C 2128.08 2125.41 1990.79 2051.62 1845 1917.0099999999998 C 1907.61 1851.2699999999998 1970.22 1776.5899999999997 2029.7 1693.8499999999997 C 2130.77 1683.1199999999997 2226.4700000000003 1666.5699999999997 2314.12 1644.6599999999996 C 2324.41 1689.8299999999997 2332.46 1733.2099999999996 2337.38 1774.7999999999997 z M 2509.55 1476.5099999999998 C 2471.09 1493.0599999999997 2429.05 1507.8199999999997 2385.67 1521.6799999999998 C 2360.1800000000003 1434.0299999999997 2326.64 1342.7999999999997 2285.05 1249.33 C 2326.2000000000003 1156.31 2359.29 1065.53 2384.3300000000004 978.3209999999999 C 2428.6100000000006 992.185 2470.6400000000003 1007.3899999999999 2510.0000000000005 1023.9399999999999 C 2668.3100000000004 1091.46 2770.7200000000003 1180.01 2770.7200000000003 1250.22 C 2770.2700000000004 1320.44 2667.86 1409.43 2509.55 1476.51 z" stroke-linecap="round" />
</g>
		<g transform="matrix(0.75 0 0 0.75 0 290.53)"  >
<path style="stroke: none; stroke-width: 1; stroke-dasharray: none; stroke-linecap: butt; stroke-dashoffset: 0; stroke-linejoin: miter; stroke-miterlimit: 4; fill: rgb(255,255,255); fill-rule: nonzero; opacity: 1;" vector-effect="non-scaling-stroke"  transform=" translate(-1782.17, -1872.4)" d="M 1772.55 1454.6 C 1885.4299999999998 1454.6 1976.9299999999998 1363.1 1976.9299999999998 1250.2199999999998 C 1976.9299999999998 1137.35 1885.4299999999998 1045.85 1772.5499999999997 1045.85 C 1659.6799999999998 1045.85 1568.1799999999998 1137.35 1568.1799999999998 1250.2199999999998 C 1568.1799999999998 1363.1 1659.6799999999998 1454.6 1772.5499999999997 1454.6 z M 775.625 2578.81 L 708.16 2578.81 L 708.16 2695 L 670.088 2695 L 670.088 2407.7799999999997 L 765.17 2407.7799999999997 C 797.521 2407.7799999999997 822.377 2415.1499999999996 839.736 2429.8799999999997 C 857.227 2444.5999999999995 865.973 2466.0399999999995 865.973 2494.18 C 865.973 2512.0699999999997 861.107 2527.6499999999996 851.375 2540.94 C 841.775 2554.2200000000003 828.361 2564.15 811.133 2570.7200000000003 L 878.5980000000001 2692.63 L 878.5980000000001 2695 L 837.961 2695 z M 708.16 2547.84 L 766.3539999999999 2547.84 C 785.16 2547.84 800.0859999999999 2542.9700000000003 811.1329999999999 2533.2400000000002 C 822.3109999999999 2523.51 827.9 2510.4900000000002 827.9 2494.1800000000003 C 827.9 2476.4300000000003 822.574 2462.82 811.922 2453.3500000000004 C 801.4010000000001 2443.8800000000006 786.1460000000001 2439.0800000000004 766.1560000000001 2438.9500000000003 L 708.16 2438.9500000000003 z M 1002.0899999999999 2698.9500000000003 C 973.1539999999999 2698.9500000000003 949.6129999999999 2689.4800000000005 931.4649999999999 2670.5400000000004 C 913.3159999999999 2651.4700000000003 904.242 2626.0200000000004 904.242 2594.2000000000003 L 904.242 2587.4900000000002 C 904.242 2566.32 908.2529999999999 2547.4500000000003 916.275 2530.88 C 924.429 2514.17 935.739 2501.15 950.2049999999999 2491.82 C 964.8029999999999 2482.3500000000004 980.584 2477.61 997.549 2477.61 C 1025.3 2477.61 1046.87 2486.75 1062.25 2505.03 C 1077.64 2523.3100000000004 1085.33 2549.48 1085.33 2583.5400000000004 L 1085.33 2598.7300000000005 L 940.736 2598.7300000000005 C 941.262 2619.7800000000007 947.378 2636.8100000000004 959.082 2649.8300000000004 C 970.918 2662.7100000000005 985.91 2669.1600000000003 1004.06 2669.1600000000003 C 1016.9499999999999 2669.1600000000003 1027.86 2666.53 1036.8 2661.2700000000004 C 1045.75 2656.01 1053.57 2649.0400000000004 1060.28 2640.3600000000006 L 1082.57 2657.7200000000007 C 1064.6799999999998 2685.2000000000007 1037.86 2698.9500000000007 1002.0899999999999 2698.9500000000007 z M 997.5489999999999 2507.6000000000004 C 982.8199999999998 2507.6000000000004 970.4579999999999 2512.9900000000002 960.4629999999999 2523.7700000000004 C 950.4679999999998 2534.4300000000003 944.2869999999998 2549.4200000000005 941.9199999999998 2568.7500000000005 L 1048.84 2568.7500000000005 L 1048.84 2565.9900000000002 C 1047.79 2547.4500000000003 1042.79 2533.11 1033.85 2522.98 C 1024.8999999999999 2512.73 1012.8 2507.6 997.5489999999999 2507.6 z M 1259.52 2695 C 1257.41 2690.79 1255.7 2683.3 1254.3899999999999 2672.51 C 1237.4199999999998 2690.13 1217.1699999999998 2698.9500000000003 1193.6299999999999 2698.9500000000003 C 1172.59 2698.9500000000003 1155.3 2693.03 1141.7499999999998 2681.19 C 1128.3399999999997 2669.2200000000003 1121.6299999999999 2654.1 1121.6299999999999 2635.82 C 1121.6299999999999 2613.6000000000004 1130.05 2596.3700000000003 1146.8799999999999 2584.1400000000003 C 1163.84 2571.7700000000004 1187.6499999999999 2565.59 1218.29 2565.59 L 1253.8 2565.59 L 1253.8 2548.83 C 1253.8 2536.0699999999997 1249.98 2525.94 1242.36 2518.45 C 1234.7299999999998 2510.8199999999997 1223.4799999999998 2507.0099999999998 1208.62 2507.0099999999998 C 1195.6 2507.0099999999998 1184.6899999999998 2510.29 1175.8799999999999 2516.87 C 1167.07 2523.44 1162.6599999999999 2531.4 1162.6599999999999 2540.74 L 1125.9699999999998 2540.74 C 1125.9699999999998 2530.0899999999997 1129.7199999999998 2519.83 1137.2099999999998 2509.9599999999996 C 1144.84 2499.97 1155.1 2492.0799999999995 1167.9899999999998 2486.2899999999995 C 1181.0099999999998 2480.5099999999993 1195.2699999999998 2477.6099999999997 1210.7899999999997 2477.6099999999997 C 1235.3899999999996 2477.6099999999997 1254.6499999999996 2483.7899999999995 1268.5899999999997 2496.16 C 1282.5299999999997 2508.39 1289.7599999999998 2525.29 1290.2899999999997 2546.85 L 1290.2899999999997 2645.0899999999997 C 1290.2899999999997 2664.6899999999996 1292.7899999999997 2680.2699999999995 1297.7899999999997 2691.8399999999997 L 1297.7899999999997 2694.9999999999995 z M 1198.96 2667.19 C 1210.4 2667.19 1221.25 2664.23 1231.51 2658.31 C 1241.76 2652.39 1249.19 2644.7 1253.8 2635.23 L 1253.8 2591.44 L 1225.19 2591.44 C 1180.48 2591.44 1158.1200000000001 2604.52 1158.1200000000001 2630.69 C 1158.1200000000001 2642.13 1161.94 2651.08 1169.5600000000002 2657.52 C 1177.1900000000003 2663.96 1186.9900000000002 2667.19 1198.9600000000003 2667.19 z M 1433.1100000000001 2669.16 C 1446.13 2669.16 1457.5100000000002 2665.21 1467.2400000000002 2657.3199999999997 C 1476.9700000000003 2649.4299999999994 1482.3600000000001 2639.5699999999997 1483.4100000000003 2627.7299999999996 L 1517.9400000000003 2627.7299999999996 C 1517.2800000000002 2639.9599999999996 1513.0700000000004 2651.5999999999995 1505.3100000000002 2662.6499999999996 C 1497.55 2673.7 1487.16 2682.5099999999998 1474.14 2689.0799999999995 C 1461.25 2695.6599999999994 1447.5800000000002 2698.9499999999994 1433.1100000000001 2698.9499999999994 C 1404.0500000000002 2698.9499999999994 1380.9 2689.2799999999993 1363.67 2669.9499999999994 C 1346.5800000000002 2650.4799999999996 1338.03 2623.919999999999 1338.03 2590.2499999999995 L 1338.03 2584.1399999999994 C 1338.03 2563.359999999999 1341.84 2544.879999999999 1349.47 2528.7099999999996 C 1357.1000000000001 2512.5299999999997 1368.01 2499.97 1382.22 2491.0299999999997 C 1396.55 2482.08 1413.45 2477.6099999999997 1432.91 2477.6099999999997 C 1456.8500000000001 2477.6099999999997 1476.71 2484.7799999999997 1492.49 2499.12 C 1508.4 2513.45 1516.88 2532.06 1517.94 2554.94 L 1483.41 2554.94 C 1482.3600000000001 2541.13 1477.1000000000001 2529.82 1467.63 2521.01 C 1458.3000000000002 2512.07 1446.72 2507.6000000000004 1432.91 2507.6000000000004 C 1414.3700000000001 2507.6000000000004 1399.97 2514.3 1389.71 2527.7200000000003 C 1379.5900000000001 2541.0000000000005 1374.52 2560.2700000000004 1374.52 2585.5200000000004 L 1374.52 2592.4200000000005 C 1374.52 2617.0100000000007 1379.59 2635.9500000000007 1389.71 2649.2300000000005 C 1399.8400000000001 2662.5200000000004 1414.31 2669.1600000000003 1433.1100000000001 2669.1600000000003 z M 1608.48 2429.8799999999997 L 1608.48 2481.5599999999995 L 1648.33 2481.5599999999995 L 1648.33 2509.7699999999995 L 1608.48 2509.7699999999995 L 1608.48 2642.1299999999997 C 1608.48 2650.68 1610.26 2657.1199999999994 1613.81 2661.4599999999996 C 1617.36 2665.6699999999996 1623.4099999999999 2667.7799999999997 1631.96 2667.7799999999997 C 1636.16 2667.7799999999997 1641.95 2666.99 1649.31 2665.41 L 1649.31 2695 C 1639.71 2697.63 1630.3799999999999 2698.95 1621.3 2698.95 C 1605 2698.95 1592.7 2694.0099999999998 1584.4099999999999 2684.1499999999996 C 1576.1299999999999 2674.2899999999995 1571.9899999999998 2660.2799999999997 1571.9899999999998 2642.1299999999997 L 1571.9899999999998 2509.7699999999995 L 1533.12 2509.7699999999995 L 1533.12 2481.5599999999995 L 1571.9899999999998 2481.5599999999995 L 1571.9899999999998 2429.8799999999997 z M 2017.81 2695 L 1979.73 2695 L 1835.14 2473.67 L 1835.14 2695 L 1797.0700000000002 2695 L 1797.0700000000002 2407.7799999999997 L 1835.14 2407.7799999999997 L 1980.13 2630.1 L 1980.13 2407.7799999999997 L 2017.8100000000002 2407.7799999999997 z M 2211.13 2695 C 2209.02 2690.79 2207.31 2683.3 2206 2672.51 C 2189.03 2690.13 2168.78 2698.9500000000003 2145.24 2698.9500000000003 C 2124.2 2698.9500000000003 2106.8999999999996 2693.03 2093.3599999999997 2681.19 C 2079.95 2669.2200000000003 2073.24 2654.1 2073.24 2635.82 C 2073.24 2613.6000000000004 2081.6499999999996 2596.3700000000003 2098.49 2584.1400000000003 C 2115.45 2571.7700000000004 2139.2599999999998 2565.59 2169.8999999999996 2565.59 L 2205.41 2565.59 L 2205.41 2548.83 C 2205.41 2536.0699999999997 2201.5899999999997 2525.94 2193.96 2518.45 C 2186.34 2510.8199999999997 2175.09 2507.0099999999998 2160.23 2507.0099999999998 C 2147.21 2507.0099999999998 2136.3 2510.29 2127.4900000000002 2516.87 C 2118.6800000000003 2523.44 2114.2700000000004 2531.4 2114.2700000000004 2540.74 L 2077.5800000000004 2540.74 C 2077.5800000000004 2530.0899999999997 2081.3300000000004 2519.83 2088.82 2509.9599999999996 C 2096.4500000000003 2499.97 2106.71 2492.0799999999995 2119.6000000000004 2486.2899999999995 C 2132.6200000000003 2480.5099999999993 2146.8800000000006 2477.6099999999997 2162.4000000000005 2477.6099999999997 C 2186.9900000000007 2477.6099999999997 2206.2600000000007 2483.7899999999995 2220.2000000000007 2496.16 C 2234.140000000001 2508.39 2241.370000000001 2525.29 2241.9000000000005 2546.85 L 2241.9000000000005 2645.0899999999997 C 2241.9000000000005 2664.6899999999996 2244.4000000000005 2680.2699999999995 2249.4000000000005 2691.8399999999997 L 2249.4000000000005 2694.9999999999995 z M 2150.57 2667.19 C 2162.01 2667.19 2172.86 2664.23 2183.1200000000003 2658.31 C 2193.3700000000003 2652.39 2200.8 2644.7 2205.4100000000003 2635.23 L 2205.4100000000003 2591.44 L 2176.8 2591.44 C 2132.09 2591.44 2109.73 2604.52 2109.73 2630.69 C 2109.73 2642.13 2113.55 2651.08 2121.17 2657.52 C 2128.8 2663.96 2138.6 2667.19 2150.57 2667.19 z M 2348.6200000000003 2429.88 L 2348.6200000000003 2481.56 L 2388.4700000000003 2481.56 L 2388.4700000000003 2509.77 L 2348.6200000000003 2509.77 L 2348.6200000000003 2642.13 C 2348.6200000000003 2650.6800000000003 2350.4000000000005 2657.12 2353.9500000000003 2661.46 C 2357.5000000000005 2665.67 2363.55 2667.78 2372.1000000000004 2667.78 C 2376.3 2667.78 2382.09 2666.9900000000002 2389.4600000000005 2665.4100000000003 L 2389.4600000000005 2695 C 2379.8500000000004 2697.63 2370.5200000000004 2698.95 2361.4400000000005 2698.95 C 2345.1400000000003 2698.95 2332.8400000000006 2694.0099999999998 2324.5500000000006 2684.1499999999996 C 2316.2700000000004 2674.2899999999995 2312.1300000000006 2660.2799999999997 2312.1300000000006 2642.1299999999997 L 2312.1300000000006 2509.7699999999995 L 2273.2700000000004 2509.7699999999995 L 2273.2700000000004 2481.5599999999995 L 2312.1300000000006 2481.5599999999995 L 2312.1300000000006 2429.8799999999997 z M 2470.93 2695 L 2434.43 2695 L 2434.43 2481.56 L 2470.93 2481.56 z M 2431.47 2424.94 C 2431.47 2419.03 2433.25 2414.03 2436.7999999999997 2409.9500000000003 C 2440.4799999999996 2405.8700000000003 2445.87 2403.84 2452.97 2403.84 C 2460.08 2403.84 2465.47 2405.8700000000003 2469.1499999999996 2409.9500000000003 C 2472.8299999999995 2414.03 2474.6699999999996 2419.03 2474.6699999999996 2424.94 C 2474.6699999999996 2430.86 2472.8299999999995 2435.79 2469.1499999999996 2439.7400000000002 C 2465.47 2443.6800000000003 2460.0799999999995 2445.6600000000003 2452.97 2445.6600000000003 C 2445.87 2445.6600000000003 2440.48 2443.6800000000003 2436.7999999999997 2439.7400000000002 C 2433.2499999999995 2435.7900000000004 2431.47 2430.86 2431.47 2424.94 z M 2599.9399999999996 2645.4900000000002 L 2652.7999999999997 2481.5600000000004 L 2690.0899999999997 2481.5600000000004 L 2613.55 2695 L 2585.73 2695 L 2508.41 2481.56 L 2545.69 2481.56 z M 2811.0099999999998 2698.9500000000003 C 2782.08 2698.9500000000003 2758.54 2689.4800000000005 2740.39 2670.5400000000004 C 2722.24 2651.4700000000003 2713.17 2626.0200000000004 2713.17 2594.2000000000003 L 2713.17 2587.4900000000002 C 2713.17 2566.32 2717.1800000000003 2547.4500000000003 2725.2000000000003 2530.88 C 2733.3500000000004 2514.17 2744.6600000000003 2501.15 2759.13 2491.82 C 2773.73 2482.3500000000004 2789.51 2477.61 2806.4700000000003 2477.61 C 2834.2200000000003 2477.61 2855.7900000000004 2486.75 2871.1800000000003 2505.03 C 2886.5600000000004 2523.3100000000004 2894.26 2549.48 2894.26 2583.5400000000004 L 2894.26 2598.7300000000005 L 2749.6600000000003 2598.7300000000005 C 2750.1900000000005 2619.7800000000007 2756.3 2636.8100000000004 2768.01 2649.8300000000004 C 2779.84 2662.7100000000005 2794.84 2669.1600000000003 2812.98 2669.1600000000003 C 2825.87 2669.1600000000003 2836.79 2666.53 2845.73 2661.2700000000004 C 2854.67 2656.0100000000007 2862.5 2649.0400000000004 2869.21 2640.3600000000006 L 2891.5 2657.7200000000007 C 2873.61 2685.2000000000007 2846.78 2698.9500000000007 2811.01 2698.9500000000007 z M 2806.47 2507.6000000000004 C 2791.75 2507.6000000000004 2779.3799999999997 2512.9900000000002 2769.39 2523.7700000000004 C 2759.39 2534.4300000000003 2753.21 2549.4200000000005 2750.85 2568.7500000000005 L 2857.7599999999998 2568.7500000000005 L 2857.7599999999998 2565.9900000000002 C 2856.7099999999996 2547.4500000000003 2851.7099999999996 2533.11 2842.77 2522.98 C 2833.83 2512.73 2821.73 2507.6 2806.47 2507.6 z" stroke-linecap="round" />
</g>
</g>
</g>
</svg>